<?xml version="1.0" standalone="no"?><!DOCTYPE svg PUBLIC "-//W3C//DTD SVG 1.1//EN" "http://www.w3.org/Graphics/SVG/1.1/DTD/svg11.dtd"><svg t="1573010971379" class="icon" viewBox="0 0 1024 1024" version="1.1" xmlns="http://www.w3.org/2000/svg" p-id="1539" width="1" height="1" xmlns:xlink="http://www.w3.org/1999/xlink"><defs><style type="text/css"></style></defs><path d="M541.341259 551.554878c8.477069 1.435699 16.892739 3.216251 25.251104 5.203512 15.325034 3.648087 30.388101 8.353248 45.130873 13.847379 3.317559 1.235131 6.608511 2.542916 9.889231 3.870144 0.036839 0.014326 0.064468 0.026606 0.100284 0.039909 0.300852 0.130983 0.676405 0.293689 1.164522 0.503467 1.950422 0.838088 3.885494 1.709945 5.822612 2.581802 7.746428 3.489474 15.346523 7.293103 22.840194 11.276834 13.214976 7.030114 29.850865 3.378957 37.625946-9.7869 7.362688-12.4608 3.329838-30.287817-9.863648-37.300534-22.827915-12.143575-46.718021-22.151509-71.300906-29.913287 21.660322-13.19451 41.23003-29.748534 57.420781-48.742121 37.089733-43.508933 57.768705-98.352005 57.982576-155.405419-0.213871-57.344033-21.097504-111.524003-57.982576-155.407466-34.487465-41.034579-85.058235-69.844741-137.961118-79.429027-57.218166-10.373255-116.52183-0.683569-166.911474 28.353768-48.739051 28.083615-85.036745 72.862471-104.907305 124.83517-19.716041 51.54598-19.294438 111.725594 0 163.293063 18.987447 50.751894 54.411237 93.973278 100.847849 122.401748-34.18252 10.794857-66.953901 25.964348-97.185436 45.207621-56.339146 35.862789-103.545284 85.301781-136.764873 142.919037-35.395138 61.397349-53.723575 131.976824-53.922097 202.600301-0.045025 14.868639 12.541641 27.272133 27.497261 27.272133 15.025205 0 27.462468-12.403494 27.501354-27.263947 0.027629-8.376785 0.299829-16.737196 0.826831-25.092491 0.26606-4.175089 0.63445-8.343015 1.032516-12.505825 0.202615-2.081405 0.431835-4.16281 0.667196-6.240121 0.089028-0.789992 0.50756-3.920286 0.696872-5.375427 2.434445-16.488533 6.043646-32.796964 10.602476-48.835242 2.291183-8.05035 4.910846-16.007579 7.731078-23.893176 1.410116-3.944845 2.919493-7.853875 4.461615-11.746532 0.397043-1.004887 0.818645-2.000564 1.230014-3.000334 0.233314-0.5137 1.877767-4.386914 2.27481-5.278213 6.655584-14.888082 14.378475-29.287023 22.884197-43.211151 4.077875-6.678096 8.41874-13.20679 12.901845-19.62599 2.240017-3.212158 4.554736-6.374174 6.894014-9.513678 0.575098-0.772596 1.163499-1.530866 1.746784-2.296299-0.12996 0.204661 2.942005-3.726881 3.601015-4.541433 10.260691-12.670577 21.417799-24.611537 33.215496-35.888372 5.632277-5.389754 11.478426-10.562567 17.425881-15.597233 2.979868-2.521426 6.012947-4.979408 9.0624-7.40669 0.379647-0.301875 1.327228-1.036609 2.101871-1.638313 1.582031-1.187035 3.166109-2.368954 4.761444-3.539616 13.115716-9.605775 26.90886-18.292622 41.141002-26.186406 6.264681-3.475148 12.649088-6.727215 19.10001-9.845229 3.012613-1.457188 6.064113-2.852978 9.118682-4.233418 1.87879-0.848321 3.773953-1.666966 5.665023-2.486634 0.312108-0.124843 0.717338-0.288572 1.25662-0.50756 14.226003-5.774517 28.843932-10.591219 43.666522-14.636349 14.81952-4.051269 29.903054-7.102768 45.102221-9.374508 0.448208-0.063445 0.816598-0.116657 1.121544-0.160659 1.345648-0.166799 2.691295-0.337691 4.040013-0.49528 4.16588-0.483001 8.343015-0.867764 12.519128-1.219781 8.452509-0.714268 16.933671-1.079588 25.41074-1.237177 15.767102-0.298805 31.544437 0.49528 47.231721 2.093684 1.159406 0.119727 6.884804 0.831948 7.93267 0.937348C534.482037 550.436404 537.914206 550.975686 541.341259 551.554878zM554.965557 477.930043C559.588855 475.92641 556.801369 477.162564 554.965557 477.930043L554.965557 477.930043zM297.416783 284.077987C297.101605 286.586111 297.226448 285.530059 297.416783 284.077987L297.416783 284.077987zM517.433756 489.10864c-3.057639 0.626263-6.133697 1.149173-9.222035 1.63729-0.230244 0.036839-0.521886 0.079818-0.838088 0.125867-1.450025 0.167822-2.90005 0.323365-4.351098 0.464581-13.269211 1.318018-26.665313 1.2689-39.948851 0.145309-1.301645-0.109494-5.484921-0.618077-7.02295-0.787946-1.972934-0.310062-3.942799-0.639566-5.906523-0.995677-6.604418-1.196245-13.137205-2.774183-19.596314-4.590552-5.89629-1.655709-11.703553-3.622504-17.433044-5.77861-1.166569-0.441045-2.326998-0.905626-3.487428-1.36816-3.165086-1.384533-6.28924-2.873444-9.381671-4.40124-11.158131-5.51869-21.753443-12.121062-31.765471-19.481703-0.972141-0.76748-1.938142-1.542122-2.89698-2.325975-2.314719-1.882883-4.570085-3.840468-6.800893-5.827729-4.844332-4.28663-9.435906-8.845459-13.864776-13.550621-3.229554-3.434216-6.311753-7.001461-9.29162-10.651594-0.062422-0.147356-3.450589-4.550643-4.326539-5.776563-2.034333-2.835581-3.965312-5.741771-5.855358-8.66945-3.245927-5.042853-6.226818-10.249435-9.031701-15.549138-1.410116-2.656503-2.734274-5.354961-4.02364-8.073886-0.642636-1.340531-1.25048-2.697435-1.860371-4.052293-0.063445-0.155543-0.127913-0.315178-0.200568-0.494257-4.805446-11.787464-8.392134-24.045649-10.978029-36.497239-0.62831-3.032056-1.153266-6.086625-1.645476-9.148357-0.025583-0.156566-0.054235-0.341784-0.083911-0.543376-0.12075-1.013073-0.24764-2.025123-0.354064-3.038196-0.74292-6.827499-1.071402-13.684674-1.147126-20.546965-0.071631-6.359848 0.205685-12.719696 0.706081-19.057031 0.197498-2.527566 0.473791-5.047969 0.774643-7.565303 0.037862-0.26913 0.073678-0.517793 0.104377-0.719384 0.311085-2.045589 0.678452-4.076852 1.056052-6.110161 2.306532-12.529361 5.90243-24.814152 10.451026-36.715203 0.433882-1.128707 0.8913-2.25025 1.345648-3.370771 1.204431-2.715855 2.485611-5.390777 3.800559-8.051373 2.882654-5.827729 6.089695-11.488659 9.494235-17.029862 3.12927-5.087878 6.528694-10.009981 10.081613-14.824637 0.158612-0.214894 0.370437-0.49528 0.598634-0.795109 0.5137-0.636496 1.02126-1.279133 1.541099-1.910513 2.198062-2.696412 4.492314-5.313006 6.828522-7.899924 7.486508-8.308223 15.712867-15.947204 24.434505-22.976294 0.398066-0.25378 4.594645-3.430122 5.791913-4.27435 2.453888-1.731434 4.958942-3.378957 7.479345-4.998851 5.483898-3.530406 11.165294-6.752798 16.940834-9.764388 2.686179-1.39579 5.406127-2.705622 8.146541-3.989871 1.335415-0.62524 2.683109-1.222851 4.037966-1.823532 5.854335-2.355651 11.825326-4.411473 17.862833-6.247284 5.910617-1.792832 11.917424-3.269463 17.958-4.547573 3.057639-0.64366 6.124488-1.186012 9.200546-1.702782 0.35918-0.058328 0.718361-0.106424 1.076518-0.162706 1.162476-0.151449 3.196809-0.420579 4.092201-0.514723 13.255908-1.414209 26.64587-1.463328 39.934524-0.433882 1.834788 0.13917 3.664459 0.321318 5.492084 0.518816 0.070608 0.051165 5.907547 0.843204 7.487531 1.118474 6.621814 1.150196 13.171997 2.684132 19.650549 4.451382 5.913687 1.609661 11.737322 3.540639 17.482163 5.656837 1.076518 0.393973 4.263094 1.697665 5.877871 2.350534 2.37407 1.059122 4.732791 2.152013 7.068999 3.282766 11.277858 5.481851 21.99392 12.063757 32.124651 19.416212 0.216941 0.157589 0.50142 0.36839 0.803295 0.594541 0.64059 0.508583 1.287319 1.011027 1.924839 1.524726 2.328022 1.871627 4.603855 3.812839 6.852058 5.780657 4.869914 4.256954 9.494235 8.783037 13.95585 13.462616 3.956102 4.145413 7.692193 8.484232 11.291161 12.93459 0.839111 1.110287 1.660826 2.232854 2.480494 3.355421 2.049682 2.823302 4.000104 5.716188 5.910617 8.631588 3.284813 5.019317 6.299473 10.204409 9.140171 15.476483 1.425466 2.647293 2.771113 5.335519 4.084015 8.04114 0.655939 1.356904 1.285273 2.727111 1.913583 4.092201 0.176009 0.38374 0.323365 0.704035 0.451278 0.981351 4.965082 12.053524 8.67559 24.585955 11.31265 37.332257 0.630357 3.032056 1.159406 6.085602 1.65264 9.148357 0.034792 0.217964 0.076748 0.491187 0.119727 0.786922 0.170892 1.451048 0.329505 2.904143 0.474814 4.358261 0.688685 6.835685 0.972141 13.715373 0.995677 20.585851-0.023536 6.352685-0.306992 12.691043-0.848321 19.021216-0.109494 1.255597-0.594541 5.206582-0.776689 6.828522-0.401136 2.512217-0.837064 5.018294-1.318018 7.518231-2.399653 12.501732-6.079462 24.744567-10.707876 36.604686-0.181125 0.460488-0.373507 0.912789-0.558725 1.370207-0.279363 0.650823-0.596588 1.385557-0.804319 1.847068-1.235131 2.7486-2.557242 5.449106-3.906983 8.143471-2.921539 5.802146-6.16849 11.43954-9.612938 16.945951-3.107781 4.981455-6.477528 9.79611-9.992585 14.499226-0.787946 0.981351-1.584078 1.952468-2.384303 2.921539-2.220574 2.675946-4.533246 5.28026-6.884804 7.852852-4.021593 4.39817-8.280594 8.590656-12.660344 12.641925-2.191922 2.026146-4.449335 3.989871-6.723122 5.919826-1.170662 0.99363-5.615904 4.469801-6.478552 5.184069-9.194406 6.725168-18.978237 12.656251-29.129434 17.857716-2.689249 1.3743-5.424546 2.664689-8.17417 3.927449-1.001817 0.461511-2.015913 0.901533-3.027963 1.343601-0.062422 0.025583-0.122797 0.050142-0.179079 0.072655-6.148024 2.466168-12.43931 4.575202-18.793018 6.456039C529.517979 486.444974 523.495822 487.874533 517.433756 489.10864zM530.718317 641.08803c0 14.866592 12.506848 27.270087 27.497261 27.270087l358.073258 0c14.986319 0 27.496238-12.403494 27.496238-27.270087s-12.508895-27.26804-27.496238-27.26804L558.215578 613.81999C543.225165 613.81999 530.718317 626.222461 530.718317 641.08803zM916.288836 755.85182 558.215578 755.85182c-14.990413 0-27.497261 12.402471-27.497261 27.26804 0 14.864546 12.506848 27.272133 27.497261 27.272133l358.073258 0c14.986319 0 27.496238-12.407588 27.496238-27.272133C943.785074 768.254292 931.276179 755.85182 916.288836 755.85182zM916.288836 897.887744 558.215578 897.887744c-14.990413 0-27.497261 12.403494-27.497261 27.26804 0 14.860453 12.506848 27.265994 27.497261 27.265994l358.073258 0c14.986319 0 27.496238-12.405541 27.496238-27.265994C943.785074 910.292262 931.276179 897.887744 916.288836 897.887744z" p-id="1540"></path></svg>