<?xml version="1.0" standalone="no"?><!DOCTYPE svg PUBLIC "-//W3C//DTD SVG 1.1//EN" "http://www.w3.org/Graphics/SVG/1.1/DTD/svg11.dtd"><svg t="1573179593312" class="icon" viewBox="0 0 1024 1024" version="1.1" xmlns="http://www.w3.org/2000/svg" p-id="1708" xmlns:xlink="http://www.w3.org/1999/xlink" width="128" height="128"><defs><style type="text/css"></style></defs><path d="M779.884 891.52c0 12.98-6.585 23.404-14.536 23.404H233.303c-7.951 0-14.536-10.425-14.536-23.404 0-12.98 6.585-23.404 14.536-23.404h532.045c8.043 0.093 14.536 10.61 14.536 23.404zM880.48 180.224a45.75 45.75 0 0 1 32.569 13.583 46.029 46.029 0 0 1 13.496 32.569v496.609c0 25.554-20.782 46.157-46.157 46.157H143.611a45.747 45.747 0 0 1-32.568-13.584 46.029 46.029 0 0 1-13.497-32.568V226.376c0-25.554 20.782-46.157 46.157-46.157l736.778 0.005m5.914-51.63H137.697c-51.835 0-93.7 41.958-93.7 93.793v504.581c0 51.835 41.87 93.794 93.7 93.794h748.61c51.836 0 93.702-41.959 93.702-93.794V222.392c0.087-51.742-41.964-93.798-93.614-93.798z" p-id="1709"></path><path d="M410.301 333.809h-45.066L254.531 615.28h47.994l28.432-74.87h113.08l28.431 74.87h48.451L410.301 333.809z m18.74 166.743h-83.006l41.687-108.97 41.319 108.97z m305.694-127.524c-22.671-25.964-56.77-39.035-101.104-39.035H530.785v281.38h99.825c43.786 0 78.07-13.164 101.745-39.035 22.579-24.684 34.099-58.87 34.099-101.745-0.087-43.428-10.783-77.706-31.719-101.565zM721.94 474.68c0 32.82-7.864 57.774-23.219 74.594-16.179 17.003-40.955 25.594-73.59 25.594h-49.914V374.487h53.294c32.635 0 56.95 8.504 71.854 24.955 14.351 16.184 21.575 41.416 21.575 75.238z" p-id="1710"></path></svg>