<?xml version="1.0" standalone="no"?><!DOCTYPE svg PUBLIC "-//W3C//DTD SVG 1.1//EN" "http://www.w3.org/Graphics/SVG/1.1/DTD/svg11.dtd"><svg t="1573094279522" class="icon" viewBox="0 0 1024 1024" version="1.1" xmlns="http://www.w3.org/2000/svg" p-id="2815" xmlns:xlink="http://www.w3.org/1999/xlink" width="128" height="128"><defs><style type="text/css"></style></defs><path d="M711.533436 844.59627H182.079582c-55.463119 0-100.466089-45.124599-100.466089-100.466088V425.217247C81.613493 369.754128 126.738092 324.751158 182.079582 324.751158h322.440195c12.771113 0 23.231263 10.33852 23.231262 23.231263 0 12.771113-10.33852 23.231263-23.231262 23.231262H182.079582c-29.799264 0-54.125193 24.325929-54.125193 54.125193v318.791306c0 29.799264 24.325929 54.125193 54.125193 54.125193h529.453854c29.799264 0 54.125193-24.325929 54.125193-54.125193V613.86483c0-12.771113 10.33852-23.231263 23.231263-23.231263 12.771113 0 23.231263 10.33852 23.231263 23.231263v130.265352c0 55.341489-45.124599 100.466089-100.587719 100.466088z m0 0" p-id="2816"></path><path d="M500.01948 472.40955H104.723126v89.397791h444.434731L500.01948 472.40955z m0 0" p-id="2817"></path><path d="M706.060102 653.759354c-63.125787 0-122.481055-24.569189-167.119135-69.207269s-69.207269-103.993348-69.207269-167.119136 24.569189-122.481055 69.207269-167.119135 103.993348-69.207269 167.119135-69.207269c63.125787 0 122.481055 24.569189 167.119135 69.207269s69.207269 103.993348 69.20727 167.119135c0 63.125787-24.569189 122.481055-69.20727 167.119136s-103.993348 69.207269-167.119135 69.207269z m0-426.311914c-104.723126 0-189.985509 85.262383-189.985509 189.985509s85.262383 189.985509 189.985509 189.985509 189.985509-85.262383 189.985509-189.985509S810.783228 227.44744 706.060102 227.44744z m0 0" p-id="2818"></path><path d="M706.060102 420.230431c-5.108445 0-9.852001-2.067704-13.257631-5.838223l-66.774677-72.856159c-6.689631-7.297779-6.203112-18.730966 1.094667-25.542226 7.297779-6.689631 18.730966-6.203112 25.542226 1.094667l53.517045 58.382231 53.517045-58.382231c6.689631-7.297779 18.122817-7.784297 25.542225-1.094667 7.297779 6.689631 7.784297 18.122817 1.094667 25.542226l-66.774676 72.856159c-3.648889 3.648889-8.392446 5.838223-13.500891 5.838223z m0 0" p-id="2819"></path><path d="M778.916261 420.230431H633.203943c-9.973631 0-18.001188-8.027557-18.001187-18.001188 0-9.973631 8.027557-18.001188 18.001187-18.001187h145.712318c9.973631 0 18.001188 8.027557 18.001188 18.001187 0 9.852001-8.027557 18.001188-18.001188 18.001188z m0 0M784.997743 485.910441H627.122461c-9.973631 0-18.001188-8.027557-18.001188-18.001188 0-9.973631 8.027557-18.001188 18.001188-18.001188h157.875282c9.973631 0 18.001188 8.027557 18.001188 18.001188 0 9.973631-8.027557 18.001188-18.001188 18.001188z m0 0" p-id="2820"></path><path d="M706.060102 543.684523c-9.973631 0-18.001188-8.027557-18.001188-18.001188V402.107614c0-9.973631 8.027557-18.001188 18.001188-18.001188 9.973631 0 18.001188 8.027557 18.001188 18.001188v123.454092c0 9.973631-8.027557 18.122817-18.001188 18.122817z m0 0" p-id="2821"></path></svg>