<?xml version="1.0" standalone="no"?><!DOCTYPE svg PUBLIC "-//W3C//DTD SVG 1.1//EN" "http://www.w3.org/Graphics/SVG/1.1/DTD/svg11.dtd"><svg t="1573110277143" class="icon" viewBox="0 0 1024 1024" version="1.1" xmlns="http://www.w3.org/2000/svg" p-id="3838" xmlns:xlink="http://www.w3.org/1999/xlink" width="128" height="128"><defs><style type="text/css"></style></defs><path d="M958.927959 934.246837 64.484663 934.246837 64.484663 91.240027l38.758746 0 0 804.247041 855.683527 0L958.926936 934.246837zM958.927959 934.246837" p-id="3839"></path><path d="M208.046337 367.408881l67.8759 0 0 426.320619-67.8759 0L208.046337 367.408881 208.046337 367.408881zM208.046337 367.408881" p-id="3840"></path><path d="M611.845009 522.432607l67.8759 0 0 271.296893-67.8759 0L611.845009 522.432607 611.845009 522.432607zM611.845009 522.432607" p-id="3841"></path><path d="M815.266002 354.421079l67.8759 0 0 439.308421-67.8759 0L815.266002 354.421079 815.266002 354.421079zM815.266002 354.421079" p-id="3842"></path><path d="M414.71121 147.749042l67.8759 0 0 645.980457-67.8759 0L414.71121 147.749042 414.71121 147.749042zM414.71121 147.749042" p-id="3843"></path></svg>