<?xml version="1.0" standalone="no"?><!DOCTYPE svg PUBLIC "-//W3C//DTD SVG 1.1//EN" "http://www.w3.org/Graphics/SVG/1.1/DTD/svg11.dtd"><svg t="1573094367183" class="icon" viewBox="0 0 1024 1024" version="1.1" xmlns="http://www.w3.org/2000/svg" p-id="2947" xmlns:xlink="http://www.w3.org/1999/xlink" width="128" height="128"><defs><style type="text/css"></style></defs><path d="M982.784 127.168 41.216 127.168C18.432 127.168 0 145.6 0 168.384l0 90.688 1024 0L1024 168.384C1024 145.6 1005.568 127.168 982.784 127.168z" p-id="2948"></path><path d="M1024 381.44l0 474.176c0 22.784-18.432 41.216-41.216 41.216L41.216 896.832C18.432 896.832 0 878.4 0 855.616L0 381.44 1024 381.44zM384.832 509.248 129.216 509.248l0 78.336 255.68 0L384.896 509.248zM515.456 687.936 129.216 687.936l0 78.336 386.24 0L515.456 687.936zM514.048 509.248 435.712 509.248l0 78.336 78.336 0L514.048 509.248z" p-id="2949"></path></svg>